<?xml version="1.0" encoding="UTF-8"?>
<svg width="100%" height="100%" viewBox="0 0 638 589" version="1.1" 
    xmlns="http://www.w3.org/2000/svg" 
    xmlns:xlink="http://www.w3.org/1999/xlink">
    <!-- Generator: Sketch 61.2 (89653) - https://sketch.com -->
    <title>Group</title>
    <desc>Created with Sketch.</desc>
    <defs>
        <linearGradient x1="21.4661737%" y1="8.93121122%" x2="49.9016193%" y2="99.8567958%" id="linearGradient-1">
            <stop stop-color="#00ADE7" offset="0%"></stop>
            <stop stop-color="#04E3D5" offset="100%"></stop>
        </linearGradient>
        <linearGradient x1="21.4661737%" y1="8.93121122%" x2="49.9016193%" y2="99.8567958%" id="linearGradient-2">
            <stop stop-color="#00ADE7" offset="0%"></stop>
            <stop stop-color="#04E3D5" offset="100%"></stop>
        </linearGradient>
        <linearGradient x1="21.4661737%" y1="8.93121122%" x2="49.9016193%" y2="99.8567958%" id="linearGradient-3">
            <stop stop-color="#00ADE7" offset="0%"></stop>
            <stop stop-color="#04E3D5" offset="100%"></stop>
        </linearGradient>
        <linearGradient x1="21.4661737%" y1="-4.90635688%" x2="49.9016193%" y2="116.655363%" id="linearGradient-4">
            <stop stop-color="#00ADE7" offset="0%"></stop>
            <stop stop-color="#04E3D5" offset="100%"></stop>
        </linearGradient>
    </defs>
    <g id="Page-1" stroke="none" stroke-width="1" fill="none" fill-rule="evenodd">
        <g id="Group" transform="translate(-2.000000, -7.000000)" fill-rule="nonzero">
            <path d="M13.6752137,174.614726 L294.141413,310.625952 C301.43486,314.121957 311.214712,315.953196 320.8288,315.953196 C330.44289,315.953196 340.22274,314.121957 347.516187,310.625952 L627.982389,174.614726 C642.735043,167.45624 642.735043,155.802892 627.982389,148.644406 L347.516187,12.6331811 C340.22274,9.13717656 330.44289,7.30593607 320.8288,7.30593607 C311.214712,7.30593607 301.43486,9.13717656 294.141413,12.6331811 L13.6752137,148.644406 C-1.07744108,155.802892 -1.07744108,167.45624 13.6752137,174.614726 L13.6752137,174.614726 Z M305.578865,36.6057838 C308.231029,35.2739726 313.701115,33.9421614 320.8288,33.9421614 C327.956488,33.9421614 333.260814,35.2739726 336.078735,36.6057838 L593.835795,161.629566 L336.078735,286.653349 C333.426573,287.98516 327.956488,289.31697 320.8288,289.31697 C313.701115,289.31697 308.396789,287.98516 305.578865,286.653349 L47.8218079,161.629566 L305.578865,36.6057838 L305.578865,36.6057838 Z" id="Shape" fill="url(#linearGradient-1)"></path>
            <path d="M627.982389,288.384703 C627.982389,288.384703 576.762496,263.579719 569.966329,260.250189 C563.170163,256.920662 561.346801,257.087139 554.219113,260.416667 C547.091428,263.746194 347.350427,360.635463 347.350427,360.635463 C339.891221,364.131468 330.27713,365.96271 320.66304,365.96271 C311.04895,365.96271 301.269101,364.131468 293.975654,360.635463 C293.975654,360.635463 99.5389796,266.409817 90.4221705,261.914954 C80.4765605,257.087139 77.6586377,257.087139 68.7075886,261.415525 C59.4250195,265.910388 13.3436933,288.218226 13.3436933,288.218226 C-1.40896141,295.376712 -1.40896141,307.030062 13.3436933,314.188546 L293.809894,450.199772 C301.103341,453.695776 310.883191,455.527016 320.497281,455.527016 C330.111371,455.527016 339.891221,453.695776 347.184668,450.199772 L627.650867,314.188546 C642.735043,307.196537 642.735043,295.543189 627.982389,288.384703 L627.982389,288.384703 Z M336.078735,426.393646 C333.426573,427.725457 327.956488,429.057267 320.8288,429.057267 C313.701115,429.057267 308.396789,427.725457 305.578865,426.393646 L47.8218079,301.369863 L79.1504791,286.220509 L282.538202,384.941021 C293.146854,390.101788 306.739186,392.931888 320.8288,392.931888 C334.918416,392.931888 348.344989,390.101788 359.119398,384.941021 L562.507123,286.220509 L593.835795,301.369863 L336.078735,426.393646 L336.078735,426.393646 Z" id="Shape" fill="url(#linearGradient-2)"></path>
            <path d="M627.982389,428.125 C627.982389,428.125 576.762496,403.320016 569.966329,399.990486 C563.170163,396.660959 561.346801,396.827436 554.219113,400.156963 C547.091428,403.486491 347.516187,500.542237 347.516187,500.542237 C340.05698,504.038242 330.44289,505.869482 320.8288,505.869482 C311.214712,505.869482 301.43486,504.038242 294.141413,500.542237 C294.141413,500.542237 99.7047396,406.316591 90.5879305,401.821728 C80.6423207,396.993911 77.8243977,396.993911 68.8733488,401.322299 C59.5907795,405.817162 13.5094535,428.125 13.5094535,428.125 C-1.24320124,435.283486 -1.24320124,446.936833 13.5094535,454.09532 L293.975654,590.106546 C301.269101,593.769025 311.04895,595.43379 320.66304,595.43379 C330.27713,595.43379 340.05698,593.60255 347.350427,590.106546 L627.816627,454.09532 C642.735043,446.936833 642.735043,435.283486 627.982389,428.125 L627.982389,428.125 Z M336.078735,566.133943 C333.426573,567.465753 327.956488,568.797564 320.8288,568.797564 C313.701115,568.797564 308.396789,567.465753 305.578865,566.133943 L47.8218079,441.11016 L79.1504791,425.960806 L282.538202,524.681317 C293.146854,529.842084 306.739186,532.672185 320.8288,532.672185 C334.918416,532.672185 348.344989,529.842084 359.119398,524.681317 L562.507123,425.960806 L593.835795,441.11016 L336.078735,566.133943 L336.078735,566.133943 Z" id="Shape" fill="url(#linearGradient-3)"></path>
            <path d="M233.774038,221.917808 L233.772321,136.7972 C233.765453,134.488996 233.737981,131.468723 233.689904,127.736382 C233.633814,123.381983 233.605769,120.024882 233.605769,117.665079 L233.605769,117.665079 L256.911058,221.917808 L282.067308,221.917808 L305.540865,117.665079 C305.540865,120.024882 305.512821,123.381983 305.456731,127.736382 L305.434409,129.543213 C305.393201,133.038199 305.372596,135.821115 305.372596,137.891963 L305.372596,221.917808 L329.519231,221.917808 L329.519231,97.6910317 L292.247596,97.6910317 L269.867788,195.370024 L247.319712,97.6910317 L209.627404,97.6910317 L209.627404,221.917808 L233.774038,221.917808 Z M380.053472,223.229185 L382.271635,223.181988 L393.629808,222.760595 L393.629808,204.809236 C392.844551,204.865422 392.045272,204.907561 391.231971,204.935654 C390.41867,204.963747 389.647436,204.977793 388.918269,204.977793 C384.038462,204.977793 381.121795,204.51426 380.168269,203.587195 C379.214744,202.660129 378.737981,200.314373 378.737981,196.549925 L378.737981,196.549925 L378.737981,148.005405 L393.629808,148.005405 L393.629808,130.896832 L378.737981,130.896832 L378.737981,105.276113 L355.012019,105.276113 L355.012019,130.896832 L342.223558,130.896832 L342.223558,148.005405 L355.012019,148.005405 L355.012019,204.5564 C355.012019,210.28735 356.358173,214.529377 359.050481,217.282481 C363.201122,221.608786 370.941506,223.575289 382.271635,223.181988 L380.053472,223.229185 Z M433.509615,221.917808 L433.509615,97.6910317 L409.53125,97.6910317 L409.53125,221.917808 L433.509615,221.917808 Z" id="Mtl" fill="url(#linearGradient-4)"></path>
        </g>
    </g>
</svg>